<svg id="visual" viewBox="0 0 1200 500" width="1200" height="500" xmlns="http://www.w3.org/2000/svg" xmlns:xlink="http://www.w3.org/1999/xlink" version="1.1"><rect x="0" y="0" width="1200" height="500" fill="#FFFFFF"></rect><path d="M0 138L28.5 153.8C57 169.7 114 201.3 171.2 219.3C228.3 237.3 285.7 241.7 342.8 219.8C400 198 457 150 514.2 135C571.3 120 628.7 138 685.8 144.5C743 151 800 146 857.2 157.7C914.3 169.3 971.7 197.7 1028.8 192.5C1086 187.3 1143 148.7 1171.5 129.3L1200 110L1200 0L1171.5 0C1143 0 1086 0 1028.8 0C971.7 0 914.3 0 857.2 0C800 0 743 0 685.8 0C628.7 0 571.3 0 514.2 0C457 0 400 0 342.8 0C285.7 0 228.3 0 171.2 0C114 0 57 0 28.5 0L0 0Z" fill="#503cf7" stroke-linecap="round" stroke-linejoin="miter"></path></svg>